<svg width="40" height="40" viewBox="0 0 40 40" fill="none" xmlns="http://www.w3.org/2000/svg">
<path d="M21.1991 2.77319C20.9722 2.5962 20.6928 2.50007 20.4051 2.50007C20.1174 2.50007 19.838 2.5962 19.6112 2.77319L1.25 17.0915L2.83789 19.0997L5.08333 17.3489V33.1667C5.08472 33.844 5.35441 34.4932 5.83337 34.9722C6.31233 35.4512 6.96154 35.7208 7.63889 35.7222H33.1944C33.8718 35.721 34.5211 35.4513 35.0001 34.9723C35.4791 34.4934 35.7487 33.8441 35.75 33.1667V17.3606L37.9954 19.1111L39.5833 17.1027L21.1991 2.77319ZM22.9722 33.1667H17.8611V22.9444H22.9722V33.1667ZM25.5278 33.1667V22.9444C25.527 22.2669 25.2575 21.6173 24.7784 21.1383C24.2993 20.6592 23.6498 20.3897 22.9722 20.3889H17.8611C17.1835 20.3896 16.5339 20.659 16.0548 21.1381C15.5757 21.6173 15.3062 22.2669 15.3056 22.9444V33.1667H7.63889V15.3564L20.4167 5.40247L33.1944 15.3698V33.1667H25.5278Z" fill="#E5E5E5"/>
</svg>
