<svg width="40" height="40" viewBox="0 0 40 40" fill="none" xmlns="http://www.w3.org/2000/svg">
<path d="M7.5 16.25C7.5 14.8693 8.61929 13.75 10 13.75C11.3807 13.75 12.5 14.8693 12.5 16.25V32.5C12.5 33.8807 11.3807 35 10 35C8.61929 35 7.5 33.8807 7.5 32.5V16.25ZM30 20C28.6193 20 27.5 21.1193 27.5 22.5V32.5C27.5 33.8807 28.6193 35 30 35C31.3807 35 32.5 33.8807 32.5 32.5V22.5C32.5 21.1193 31.3807 20 30 20ZM17.5 32.5C17.5 33.8807 18.6193 35 20 35C21.3807 35 22.5 33.8807 22.5 32.5V7.5C22.5 6.11929 21.3807 5 20 5C18.6193 5 17.5 6.11929 17.5 7.5V32.5Z" fill="#E5E5E5"/>
</svg>
