<svg width="40" height="40" viewBox="0 0 40 40" fill="none" xmlns="http://www.w3.org/2000/svg">
<path d="M19.9998 27.395C14.0035 27.42 8.99229 31.6062 7.70354 37.215L7.68729 37.3C7.67354 37.36 7.66604 37.4287 7.66604 37.5C7.66604 38.0175 8.08604 38.4375 8.60354 38.4375C9.04979 38.4375 9.42354 38.125 9.51729 37.7063L9.51854 37.7C10.6123 32.8438 14.8898 29.27 20.001 29.27C25.1123 29.27 29.3898 32.8438 30.4698 37.6287L30.4835 37.7C30.5785 38.125 30.951 38.4375 31.3985 38.4375H31.3998C31.471 38.4375 31.5398 38.4288 31.606 38.4137L31.5998 38.415C32.0248 38.32 32.3373 37.9463 32.3373 37.4987C32.3373 37.4275 32.3298 37.3587 32.3148 37.2925L32.316 37.2988C31.0098 31.6063 25.9973 27.42 20.0048 27.3938H20.0023L19.9998 27.395ZM11.4548 13.2525C14.6823 13.2525 17.2998 10.6363 17.2998 7.4075C17.2998 4.17875 14.6835 1.5625 11.4548 1.5625C8.22728 1.5625 5.60979 4.17875 5.60979 7.4075C5.61354 10.6337 8.22979 13.2488 11.4548 13.2525ZM11.4548 3.4375C13.6473 3.4375 15.4248 5.215 15.4248 7.4075C15.4248 9.6 13.6473 11.3775 11.4548 11.3775C9.26229 11.3775 7.48479 9.6 7.48479 7.4075C7.48729 5.21625 9.26479 3.44 11.4548 3.4375ZM28.6573 13.2525C31.8848 13.2525 34.5023 10.6363 34.5023 7.4075C34.5023 4.17875 31.886 1.5625 28.6573 1.5625C25.4298 1.5625 22.8123 4.17875 22.8123 7.4075C22.816 10.6337 25.431 13.2488 28.656 13.2525H28.6573ZM28.6573 3.4375C30.8498 3.4375 32.6273 5.215 32.6273 7.4075C32.6273 9.6 30.8498 11.3775 28.6573 11.3775C26.4648 11.3775 24.6873 9.6 24.6873 7.4075C24.6898 5.21625 26.466 3.44 28.6573 3.4375ZM38.5273 24.8C37.4298 19.9325 33.1423 16.3513 28.0198 16.3513C27.491 16.3513 26.971 16.39 26.4623 16.4625L26.5198 16.455C26.4585 16.47 26.4048 16.49 26.3535 16.5138L26.3585 16.5112C25.4198 13.85 22.9273 11.9775 19.9973 11.9775C17.0798 11.9775 14.596 13.8337 13.6623 16.4287L13.6473 16.4762C13.626 16.4712 13.6098 16.4587 13.5885 16.455C13.1398 16.3887 12.6223 16.35 12.0948 16.35C12.0923 16.35 12.0885 16.35 12.086 16.35C6.97104 16.3725 2.69729 19.9425 1.59604 24.7262L1.58229 24.7988C1.56854 24.8588 1.56104 24.9275 1.56104 24.9988C1.56104 25.5163 1.98104 25.9363 2.49854 25.9363C2.94479 25.9363 3.31854 25.6237 3.41229 25.205L3.41354 25.1987C4.33479 21.19 7.86354 18.2425 12.0848 18.225H12.0873C12.506 18.225 12.9173 18.255 13.3185 18.3125L13.2723 18.3075C13.2623 18.4562 13.2273 18.5975 13.2273 18.75C13.2348 22.4837 16.2635 25.5075 19.9985 25.5075C23.7335 25.5075 26.7623 22.4837 26.7685 18.75V18.7487C26.7685 18.5987 26.7335 18.4575 26.7235 18.3088C26.7435 18.3062 26.7623 18.315 26.7823 18.31C27.1498 18.255 27.5748 18.225 28.0073 18.225C28.0123 18.225 28.016 18.225 28.021 18.225C32.2448 18.2412 35.7735 21.1887 36.6823 25.1388L36.6935 25.1987C36.7885 25.6238 37.1623 25.935 37.6085 25.9363C37.6798 25.9363 37.7485 25.9275 37.8148 25.9125L37.8085 25.9138C38.2335 25.8188 38.546 25.445 38.546 24.9975C38.546 24.9262 38.5385 24.8575 38.5235 24.7913L38.5248 24.7975L38.5273 24.8ZM19.9998 23.645C19.9998 23.645 19.9998 23.645 19.9985 23.645C17.2948 23.645 15.1023 21.4537 15.1023 18.7487C15.1023 16.0437 17.2948 13.8525 19.9985 13.8525C22.7023 13.8525 24.8948 16.045 24.8948 18.7487C24.8948 18.7487 24.8948 18.7488 24.8948 18.75C24.891 21.4525 22.7023 23.6413 19.9998 23.645Z" fill="#E5E5E5"/>
</svg>
